<svg width="360" height="360" viewBox="0 0 360 360" fill="none" xmlns="http://www.w3.org/2000/svg">
<g clip-path="url(#clip0_11_7746)">
<g filter="url(#filter0_d_11_7746)">
<path fill-rule="evenodd" clip-rule="evenodd" d="M278.178 129.444L267.036 129.444C270.7 134.278 271.655 141.06 268.286 147.084L232.816 210.509C233.475 210.905 234.108 211.349 234.709 211.838L257.738 230.555L275.861 230.555L319.871 151.858L311.64 151.858C307.834 151.858 304.146 150.552 301.206 148.162L278.178 129.444ZM230.293 122.969L238.138 108.941C241.032 103.767 246.539 100.555 252.518 100.555L282.756 100.555C286.561 100.555 290.249 101.862 293.189 104.251L316.218 122.969L341.544 122.969C354.059 122.969 361.981 136.253 355.924 147.084L297.777 251.059C294.883 256.233 289.376 259.444 283.397 259.444L253.16 259.444C249.354 259.444 245.666 258.138 242.726 255.748L219.697 237.03L217.985 237.03L210.14 251.059C207.246 256.233 201.739 259.444 195.76 259.444L165.522 259.444C161.717 259.444 158.029 258.138 155.089 255.748L132.06 237.03L130.347 237.03L122.502 251.059C119.609 256.233 114.102 259.444 108.123 259.444L77.8849 259.444C74.0792 259.444 70.3914 258.138 67.4513 255.748L44.4225 237.03L19.0964 237.03C6.58116 237.03 -1.33985 223.747 4.71697 212.916L62.8637 108.941C65.7573 103.767 71.2643 100.555 77.2432 100.555L107.481 100.555C111.287 100.555 114.975 101.862 117.915 104.251L140.943 122.969L142.656 122.969L150.501 108.941C153.395 103.767 158.902 100.555 164.881 100.555L195.118 100.555C198.924 100.555 202.612 101.862 205.552 104.251L228.581 122.969L230.293 122.969ZM215.462 149.491C214.803 149.094 214.17 148.651 213.569 148.162L190.54 129.444L179.399 129.444C183.063 134.278 184.017 141.06 180.649 147.084L145.179 210.509C145.838 210.905 146.47 211.349 147.072 211.838L170.1 230.555L181.242 230.555C177.578 225.721 176.623 218.939 179.992 212.916L215.462 149.491ZM127.824 149.491L92.3543 212.916C88.9859 218.939 89.9407 225.721 93.6046 230.555L82.4631 230.555L59.4343 211.838C56.4942 209.448 52.8064 208.142 49.0007 208.142L40.7693 208.142L84.7798 129.444L102.903 129.444L125.932 148.162C126.533 148.651 127.166 149.094 127.824 149.491Z" fill="white"/>
<path d="M281.761 119.484H254.185L199.033 218.104H226.609L254.185 240.518H281.761L336.913 141.897H309.337L281.761 119.484Z" fill="#3A4DB4"/>
<path fill-rule="evenodd" clip-rule="evenodd" d="M251.441 115H283.41L310.986 137.414H344.64L284.474 245H252.505L224.929 222.586H191.275L251.441 115ZM256.898 123.966L206.759 213.621H228.257L255.833 236.034H279.017L329.156 146.379H307.658L280.082 123.966H256.898Z" fill="#3A4DB4"/>
<path d="M194.122 119.483H166.545L111.393 218.103H138.969L166.545 240.517H194.122L249.274 141.897H221.698L194.122 119.483Z" fill="#9CA8E6"/>
<path fill-rule="evenodd" clip-rule="evenodd" d="M163.803 115H195.772L223.348 137.414H257.003L196.836 245H164.868L137.292 222.586H103.637L163.803 115ZM169.26 123.966L119.122 213.621H140.62L168.196 236.034H191.38L241.518 146.379H220.02L192.444 123.966H169.26Z" fill="#9CA8E6"/>
<path d="M106.486 119.484H78.91L23.7576 218.104H51.3338L78.91 240.518H106.486L161.639 141.897H134.062L106.486 119.484Z" fill="#EBCF4D"/>
<path fill-rule="evenodd" clip-rule="evenodd" d="M76.1662 115H108.135L135.711 137.414H169.365L109.199 245H77.2306L49.6544 222.586H16L76.1662 115ZM81.6229 123.966L31.4844 213.621H52.9824L80.5586 236.034H103.742L153.881 146.379H132.383L104.807 123.966H81.6229Z" fill="#EBCF4D"/>
</g>
</g>
<defs>
<filter id="filter0_d_11_7746" x="-22.3589" y="79.5554" width="405.359" height="208.889" filterUnits="userSpaceOnUse" color-interpolation-filters="sRGB">
<feFlood flood-opacity="0" result="BackgroundImageFix"/>
<feColorMatrix in="SourceAlpha" type="matrix" values="0 0 0 0 0 0 0 0 0 0 0 0 0 0 0 0 0 0 127 0" result="hardAlpha"/>
<feOffset dy="4"/>
<feGaussianBlur stdDeviation="12.5"/>
<feComposite in2="hardAlpha" operator="out"/>
<feColorMatrix type="matrix" values="0 0 0 0 0 0 0 0 0 0 0 0 0 0 0 0 0 0 0.1 0"/>
<feBlend mode="normal" in2="BackgroundImageFix" result="effect1_dropShadow_11_7746"/>
<feBlend mode="normal" in="SourceGraphic" in2="effect1_dropShadow_11_7746" result="shape"/>
</filter>
<clipPath id="clip0_11_7746">
<rect width="360" height="360" rx="56" fill="white"/>
</clipPath>
</defs>
</svg>
